<svg width="32" height="32" viewBox="0 0 32 32" fill="none" xmlns="http://www.w3.org/2000/svg">
<g opacity="0.7">
<path d="M15.9993 29.3334C8.63535 29.3334 2.66602 23.3641 2.66602 16.0001C2.66602 8.63608 8.63535 2.66675 15.9993 2.66675C23.3633 2.66675 29.3327 8.63608 29.3327 16.0001C29.3327 23.3641 23.3633 29.3334 15.9993 29.3334ZM14.666 20.0001V22.6667H17.3327V20.0001H14.666ZM17.3327 17.8067C18.4042 17.4838 19.3242 16.7867 19.9249 15.8424C20.5256 14.8981 20.7672 13.7695 20.6057 12.662C20.4441 11.5546 19.8902 10.542 19.0447 9.80869C18.1992 9.07538 17.1185 8.67013 15.9993 8.66675C14.9205 8.66667 13.8749 9.04029 13.0404 9.72407C12.2059 10.4079 11.634 11.3596 11.422 12.4174L14.038 12.9414C14.1123 12.57 14.2904 12.2273 14.5518 11.9532C14.8132 11.6791 15.1471 11.4848 15.5146 11.393C15.8821 11.3012 16.2681 11.3157 16.6276 11.4347C16.9872 11.5537 17.3056 11.7724 17.5458 12.0653C17.786 12.3582 17.938 12.7133 17.9843 13.0892C18.0305 13.4651 17.9691 13.8465 17.807 14.1889C17.645 14.5312 17.3891 14.8206 17.0691 15.0232C16.7491 15.2258 16.3781 15.3334 15.9993 15.3334C15.6457 15.3334 15.3066 15.4739 15.0565 15.7239C14.8065 15.974 14.666 16.3131 14.666 16.6667V18.6667H17.3327V17.8067Z" fill="#F9F9F9"/>
</g>
</svg>
