<svg width="38" height="53" viewBox="0 0 38 53" fill="none" xmlns="http://www.w3.org/2000/svg">
<g opacity="0.7" clip-path="url(#clip0)">
<path d="M19.4384 2.5535C20.4036 3.87852 21.9509 4.49276 21.6233 6.25945C21.5151 6.84445 21.401 7.10185 20.7722 7.07845C19.6022 7.0375 18.4322 7.07845 17.2622 7.07845C16.5309 7.07845 15.7412 7.35632 15.7324 6.02253C15.7324 4.75309 16.3467 4.70335 17.2534 4.77063C17.388 4.77063 17.5284 4.72969 18.0022 4.36407C17.4757 3.96627 16.958 3.5597 16.4256 3.17067C15.437 2.45113 15.8114 1.41568 15.8202 0.482612C15.8202 -0.102385 16.3788 0.067266 16.7298 0.0643411C17.9964 0.0438662 19.2658 0.12577 20.5323 0.0321705C21.5239 -0.0409541 21.6438 0.406553 21.6146 1.22262C21.5853 2.03869 21.6467 2.72022 20.5118 2.52717C20.1539 2.50603 19.7948 2.51484 19.4384 2.5535Z" fill="#F9F9F9"/>
<path d="M27.6591 2.92242C28.2441 3.43137 28.8495 3.91401 29.4141 4.4522C30.1161 5.1308 29.8733 6.05217 29.7066 6.79219C29.5691 7.37719 28.7735 7.0291 28.2762 7.05543C27.3549 7.10808 26.4277 7.09345 25.5034 7.05543C24.8043 7.03495 23.959 7.39473 23.9473 6.03461C23.9473 4.80612 24.4796 4.65109 25.4361 4.75054C25.5904 4.7523 25.7445 4.73661 25.8953 4.70375C25.869 4.06903 25.3396 3.79115 24.9564 3.49866C24.0643 2.82006 23.9473 1.94842 23.9707 0.927602C23.9882 0.213906 24.231 0.00329903 24.9125 0.0237739C26.1761 0.0647237 27.4485 0.0998235 28.715 0.0237739C29.6627 -0.0435007 29.885 0.316272 29.8265 1.19377C29.7768 1.93964 29.9289 2.72353 28.753 2.52756C28.4756 2.50413 28.1968 2.50413 27.9194 2.52756L27.6591 2.92242Z" fill="#F9F9F9"/>
<path d="M7.55191 3.50982C7.55191 0.0407889 7.55191 0.040793 10.9829 0.040793C11.08 0.0275927 11.1784 0.0275927 11.2754 0.040793C12.0564 0.283567 13.3843 -0.710928 13.4048 1.21079C13.4224 3.07985 12.1705 2.489 11.3339 2.45098C10.1639 2.39833 9.90944 2.86632 9.98841 3.91347C10.0352 4.52772 10.2049 4.80852 10.8425 4.76465C11.3281 4.72955 11.8224 4.80852 12.305 4.7471C13.3083 4.62133 13.3785 5.17707 13.3873 5.96681C13.396 6.75656 13.2468 7.1368 12.3577 7.0783C11.0911 7.00778 9.82169 7.00778 8.55517 7.0783C7.67768 7.12803 7.48463 6.76241 7.53728 5.98143C7.58993 5.20046 7.55191 4.33759 7.55191 3.50982Z" fill="#F9F9F9"/>
<path d="M36.0795 10.3456C30.2822 10.407 24.4848 10.3749 18.6875 10.3719C12.8902 10.369 7.09288 10.4041 1.29849 10.3485C0.175295 10.3485 -0.0996556 10.6147 0.0261187 11.7379C0.456091 15.6077 0.77492 19.4891 1.13762 23.3676C1.88641 31.4113 2.64983 39.4551 3.36353 47.5017C3.43665 48.3148 3.70575 48.6717 4.49257 48.8794C8.96195 50.0494 13.4226 51.2457 17.8744 52.4683C18.3826 52.616 18.9223 52.616 19.4305 52.4683C23.931 51.234 28.4375 50.023 32.9497 48.8355C33.5815 48.6658 33.9033 48.4084 33.9589 47.6655C34.1695 44.9014 34.4766 42.1431 34.734 39.379C35.5851 30.1712 36.4188 20.9516 37.305 11.7555C37.4045 10.7259 37.2729 10.331 36.0795 10.3456ZM28.1352 27.5416C29.2701 27.5124 29.4895 27.8019 29.3666 28.9339C28.9396 32.8534 28.6266 36.7875 28.3429 40.7216C28.2815 41.5991 28.0124 41.9822 27.1495 42.2133C24.6135 42.8919 22.1068 43.6758 19.5943 44.4363C18.9907 44.6264 18.3433 44.6264 17.7398 44.4363C15.1775 43.667 12.6211 42.889 10.05 42.1548C9.35975 41.9588 9.01753 41.678 8.98243 40.8825C8.90053 39.1275 8.7104 37.3871 8.5115 35.6467C8.42667 34.9213 8.54075 34.4972 9.389 34.6054C9.58381 34.6172 9.77917 34.6172 9.97399 34.6054C13.0452 34.6054 13.0745 34.5908 13.4138 37.5714C13.4898 38.2617 13.8584 38.4138 14.3878 38.6214C17.3537 39.7739 20.2553 39.5487 23.1627 38.4021C23.7009 38.1885 23.9525 37.9926 23.973 37.4076C24.0227 36.0942 24.0841 34.7751 24.2421 33.4735C24.362 32.4643 24.0724 32.1426 23.0136 32.1543C18.5296 32.204 14.0456 32.1192 9.55864 32.1543C8.43837 32.1543 8.09615 31.8325 8.00547 30.7181C7.73345 27.6176 7.67203 27.6206 10.5122 26.433L18.512 23.0868L18.4535 22.7943C15.2711 22.7943 12.0829 22.73 8.90052 22.8265C7.64863 22.8646 7.27715 22.534 7.14553 21.2558C6.85303 18.1466 6.76236 18.1553 9.85699 18.1553C16.1925 18.1553 22.5251 18.1729 28.8694 18.1378C29.9253 18.1378 30.1827 18.2577 30.2383 19.5154C30.3553 22.2123 29.0683 23.3472 26.7283 24.1457C24.1777 25.0232 21.7558 26.2429 19.3076 27.5562C22.256 27.5679 25.1985 27.6176 28.1352 27.5416Z" fill="#F9F9F9"/>
</g>
<defs>
<clipPath id="clip0">
<rect width="37.3345" height="52.5854" fill="white"/>
</clipPath>
</defs>
</svg>
