<svg width="22" height="22" viewBox="0 0 22 22" fill="none" xmlns="http://www.w3.org/2000/svg">
<path d="M8.24901 16.2709C7.87318 16.2709 7.56151 15.9592 7.56151 15.5834V11.7425L6.90151 12.4025C6.63568 12.6684 6.19568 12.6684 5.92984 12.4025C5.66401 12.1367 5.66401 11.6967 5.92984 11.4309L7.76318 9.59753C7.95568 9.40503 8.25818 9.34086 8.51484 9.45086C8.77151 9.5517 8.93651 9.80836 8.93651 10.0834V15.5834C8.93651 15.9592 8.62484 16.2709 8.24901 16.2709Z" fill="white"/>
<path d="M10.0849 12.6042C9.91078 12.6042 9.73661 12.5401 9.59911 12.4026L7.76578 10.5692C7.49995 10.3034 7.49995 9.8634 7.76578 9.59757C8.03161 9.33174 8.47161 9.33174 8.73745 9.59757L10.5708 11.4309C10.8366 11.6967 10.8366 12.1367 10.5708 12.4026C10.4333 12.5401 10.2591 12.6042 10.0849 12.6042Z" fill="white"/>
<path d="M13.7487 20.8541H8.2487C3.2712 20.8541 1.14453 18.7274 1.14453 13.7499V8.24992C1.14453 3.27242 3.2712 1.14575 8.2487 1.14575H12.832C13.2079 1.14575 13.5195 1.45742 13.5195 1.83325C13.5195 2.20909 13.2079 2.52075 12.832 2.52075H8.2487C4.02286 2.52075 2.51953 4.02409 2.51953 8.24992V13.7499C2.51953 17.9758 4.02286 19.4791 8.2487 19.4791H13.7487C17.9745 19.4791 19.4779 17.9758 19.4779 13.7499V9.16659C19.4779 8.79075 19.7895 8.47909 20.1654 8.47909C20.5412 8.47909 20.8529 8.79075 20.8529 9.16659V13.7499C20.8529 18.7274 18.7262 20.8541 13.7487 20.8541Z" fill="white"/>
<path d="M20.1654 9.8542H16.4987C13.3637 9.8542 12.1445 8.63503 12.1445 5.50003V1.83336C12.1445 1.55836 12.3095 1.3017 12.5662 1.20086C12.8229 1.09086 13.1162 1.15503 13.3179 1.34753L20.6512 8.68086C20.8437 8.87336 20.9079 9.17586 20.7979 9.43253C20.6879 9.6892 20.4404 9.8542 20.1654 9.8542ZM13.5195 3.49253V5.50003C13.5195 7.86503 14.1337 8.4792 16.4987 8.4792H18.5062L13.5195 3.49253Z" fill="white"/>
</svg>
