<svg width="38" height="53" viewBox="0 0 38 53" fill="none" xmlns="http://www.w3.org/2000/svg">
<g opacity="0.7" clip-path="url(#clip0)">
<path d="M21.4519 3.72813C21.4519 4.68795 21.4314 5.22053 21.4519 5.75312C21.4872 6.55785 21.5812 7.21626 20.3237 7.21626C19.1867 7.1987 19.0662 6.73634 19.1014 5.82042C19.1632 4.35727 19.0868 2.89412 19.1367 1.44561C19.1514 0.989112 18.7724 0.175609 19.5804 0.152199C20.3883 0.128789 21.3579 -0.383311 21.9661 0.646742C22.3069 1.232 22.6683 1.78508 23.1002 2.48739C23.4608 1.98086 23.7905 1.45317 24.0874 0.907186C24.7015 -0.403791 25.8503 0.175615 26.7817 0.158057C27.2195 0.158057 27.1049 0.678929 27.1049 0.992042C27.1049 2.74781 27.0667 4.50359 27.1284 6.25936C27.1666 7.2543 26.579 7.16944 25.9179 7.19577C25.1687 7.22796 24.6839 7.10213 24.7691 6.1862C24.8308 5.52779 24.7691 4.85768 24.7691 3.78373L23.0885 6.14525L21.4519 3.72813Z" fill="#F9F9F9"/>
<path d="M10.4808 3.61966C10.4808 4.3483 10.4808 5.08279 10.4808 5.80559C10.4808 6.52838 10.5983 7.21314 9.41718 7.20436C8.34771 7.20436 7.85117 6.94977 8.03627 5.829C8.18024 4.95112 7.7072 4.79894 6.93153 4.78139C6.09123 4.76383 5.75628 5.0389 5.88262 5.85826C6.0354 6.82101 5.73572 7.18972 4.65449 7.2102C3.44104 7.23068 3.47924 6.62495 3.47924 5.77633C3.51743 4.17565 3.54388 2.5574 3.47924 0.971355C3.42929 -0.0791816 4.08743 0.0934693 4.70443 0.0934693C5.32144 0.0934693 5.97665 -0.00309391 5.89732 1.01233C5.85031 1.6327 5.51242 2.51644 6.81988 2.47547C7.74245 2.44913 8.2008 2.24429 8.03333 1.26398C7.86586 0.283678 8.34771 0.0759158 9.2644 0.0612844C10.234 0.0437267 10.5748 0.336362 10.4867 1.29326C10.422 2.05994 10.4808 2.84127 10.4808 3.61966Z" fill="#F9F9F9"/>
<path d="M14.8516 0.0906902C15.5369 0.12285 16.2235 0.117951 16.9083 0.0760445C17.8602 -0.0263755 18.1981 0.301379 18.154 1.27583C18.1188 2.06886 18.0541 2.62776 17.0581 2.46974C16.2266 2.33806 15.924 2.72141 15.9798 3.53492C16.0268 4.25771 15.9504 4.99806 15.9975 5.715C16.0562 6.64264 15.9975 7.23082 14.7341 7.21033C13.5294 7.19277 13.5265 6.60166 13.5588 5.74719C13.5941 5.11804 13.5147 4.48012 13.5794 3.85682C13.6822 2.85603 13.4677 2.28247 12.269 2.44049C11.1613 2.58388 11.555 1.68551 11.4874 1.14122C11.411 0.497434 11.4874 -2.96459e-05 12.3689 0.0672749C13.1916 0.140432 14.026 0.0906902 14.8516 0.0906902Z" fill="#F9F9F9"/>
<path d="M28.3731 3.47054C28.4202 2.842 28.4143 2.21063 28.3554 1.58308C28.1028 0.149198 28.8579 -0.0263865 30.0067 0.0760335C30.5502 0.122854 30.8235 0.263329 30.7853 0.839808C30.7588 1.22315 30.7853 1.61235 30.7853 2.01032C30.7853 4.56204 30.7853 4.61178 33.2974 4.77565C34.264 4.8371 34.1054 5.40773 34.0789 5.94616C34.0525 6.4846 34.3727 7.2074 33.362 7.16351C32.9242 7.14595 32.4806 7.16351 32.0487 7.16351C28.3731 7.16351 28.3731 7.16351 28.3731 3.47054Z" fill="#F9F9F9"/>
<path d="M36.5532 10.362C34.4495 10.4176 32.3458 10.3825 30.2421 10.3796L0 10.3298V13.2561C0.293812 13.3527 0.279122 13.6102 0.293812 13.8414C0.587625 16.9471 0.881437 20.051 1.17525 23.1528C1.93035 31.2001 2.6972 39.2474 3.41704 47.3005C3.49637 48.1784 3.79605 48.5325 4.65399 48.7637C8.94071 49.9342 13.2127 51.1457 17.476 52.3893C18.3586 52.6533 19.3006 52.6462 20.179 52.3689C23.411 51.412 26.6429 50.5165 29.8925 49.586C31.2469 49.1968 32.9775 49.1412 33.8354 48.2604C34.6934 47.3795 34.3085 45.577 34.4407 44.1636C35.469 33.2544 36.5032 22.3461 37.5433 11.4389C37.6227 10.6283 37.4288 10.3386 36.5532 10.362ZM30.5447 19.4335C30.3038 22.9158 30.3332 22.9187 26.7986 22.9187C22.3004 22.9187 17.7991 22.9363 13.3009 22.9011C12.4194 22.9011 12.1491 23.0328 12.2432 24.0161C12.5899 27.6447 12.537 27.6476 16.1567 27.6476C20.2701 27.6476 24.3835 27.6739 28.4969 27.63C29.4517 27.63 29.7838 27.8554 29.6721 28.8532C29.2431 32.9676 28.8671 37.0878 28.4969 41.2109C28.444 41.8137 28.1737 42.0508 27.6448 42.1971C24.9182 42.9579 22.1975 43.7334 19.4739 44.503C19 44.6339 18.4983 44.6267 18.0283 44.4825C15.3546 43.7187 12.6809 42.9521 9.99843 42.2146C9.41081 42.0508 9.11699 41.7903 9.0788 41.129C8.9554 39.3323 8.76736 37.5414 8.55287 35.7534C8.45885 34.9692 8.60282 34.5156 9.51658 34.6473C9.76012 34.6648 10.0046 34.6648 10.2482 34.6473C13.1334 34.6473 13.1569 34.6473 13.4801 37.5531C13.5448 38.1383 13.7739 38.3344 14.2969 38.548C17.2644 39.7712 20.2025 39.9146 23.1877 38.589C23.7577 38.3373 24.0338 38.0886 24.0691 37.4536C24.1308 36.1426 24.2219 34.8199 24.3952 33.5265C24.5245 32.555 24.216 32.274 23.22 32.2857C18.8686 32.3355 14.5114 32.2506 10.16 32.3384C8.74973 32.3677 8.16504 32.119 8.07984 30.5241C7.88592 26.8341 7.4452 23.1557 7.04268 19.4774C6.93103 18.4503 7.21897 18.1518 8.27082 18.1723C11.7966 18.2367 15.3223 18.1957 18.8481 18.1957C22.3738 18.1957 25.8996 18.2337 29.4106 18.1723C30.4272 18.1489 30.6064 18.5 30.5447 19.4218V19.4335Z" fill="#F9F9F9"/>
</g>
<defs>
<clipPath id="clip0">
<rect width="37.561" height="52.5854" fill="white"/>
</clipPath>
</defs>
</svg>
