<svg width="38" height="53" viewBox="0 0 38 53" fill="none" xmlns="http://www.w3.org/2000/svg">
<g opacity="0.7" clip-path="url(#clip0)">
<path d="M23.5227 3.06559C24.0522 3.48098 24.5788 3.8993 25.1112 4.30885C25.9712 4.97582 25.7665 5.94117 25.5675 6.72223C25.392 7.4009 24.5642 7.03523 24.0288 7.06156C23.0137 7.11421 21.9811 7.02354 20.9719 7.09375C20.0943 7.15518 19.7842 6.88897 19.8017 5.96749C19.8251 5.13085 19.9656 4.65695 20.9221 4.79737C21.1766 4.83247 21.5072 4.92023 22.022 4.32054C21.4838 3.9227 20.9338 3.53657 20.4073 3.12703C19.4536 2.384 19.8719 1.34844 19.8895 0.421116C19.8895 -0.0586346 20.4044 0.0817674 20.7115 0.0788421C21.9752 0.0612902 23.239 0.116884 24.4998 0.0554525C25.3774 0.0115728 25.7284 0.251441 25.6699 1.18169C25.6231 2.0037 25.7313 2.79646 24.4998 2.60924C24.26 2.59787 24.0197 2.61259 23.7831 2.65313L23.5227 3.06559Z" fill="#F9F9F9"/>
<path d="M17.4468 3.63324C17.4468 7.10558 17.4468 7.10558 13.9832 7.10558C13.6443 7.08214 13.3042 7.08214 12.9652 7.10558C11.9531 7.24599 11.6547 6.854 11.6371 5.82722C11.6196 4.7156 12.1666 4.70683 12.974 4.70975C15.0597 4.70975 15.0597 4.69513 15.0597 2.64448C15.0861 2.20901 15.0861 1.77235 15.0597 1.33688C14.9369 0.356901 15.2645 -0.00291991 16.3176 -0.00584522C17.3707 -0.00877053 17.5229 0.441718 17.4673 1.30176C17.4088 2.07989 17.4468 2.85803 17.4468 3.63324Z" fill="#F9F9F9"/>
<path d="M35.6337 10.3175C24.184 10.3175 12.7344 10.338 1.2847 10.2942C0.13213 10.2942 -0.0872824 10.6159 0.0268046 11.7071C0.538734 16.5953 0.962909 21.4922 1.42218 26.3834C2.07745 33.3602 2.75027 40.3371 3.37336 47.3169C3.44649 48.136 3.74195 48.4665 4.54348 48.6801C9.04554 49.9116 13.533 51.1987 18.0175 52.483C18.482 52.6144 18.9753 52.6032 19.4333 52.4508C23.871 51.1783 28.3087 49.8999 32.7669 48.6947C33.6299 48.4607 33.9048 48.0804 33.9809 47.2174C34.8029 38.0583 35.6395 28.8991 36.5464 19.7458C36.7629 17.5548 36.6371 15.311 37.3976 13.1873V10.262C36.8009 10.2883 36.2158 10.3175 35.6337 10.3175ZM29.4905 28.9898C29.0517 33.0033 28.6919 37.0256 28.3467 41.0479C28.2882 41.7061 28.0133 41.9753 27.4253 42.1391C24.7077 42.8909 21.9988 43.6778 19.2871 44.4442C18.8115 44.5624 18.3122 44.5421 17.8478 44.3857C15.2794 43.6456 12.7168 42.8821 10.1338 42.1946C9.34978 41.987 9.03091 41.6593 8.98996 40.8197C8.90805 39.1699 8.73253 37.52 8.49558 35.8848C8.34346 34.8433 8.66525 34.4221 9.70666 34.5859C9.85275 34.5962 9.99937 34.5962 10.1455 34.5859C13.0327 34.5859 13.0708 34.5859 13.3896 37.482C13.4569 38.067 13.7056 38.2718 14.2087 38.4824C17.1662 39.7111 20.1003 39.8456 23.0636 38.5117C23.5434 38.2952 23.8856 38.1226 23.9149 37.5112C23.9822 36.151 24.0699 34.7878 24.2484 33.4392C24.38 32.4329 23.9968 32.2047 23.0549 32.2135C18.5762 32.2544 14.0946 32.2135 9.61305 32.2515C8.58919 32.2515 8.19721 32.1491 8.33762 30.9264C8.77349 27.2054 9.0514 23.4697 9.34686 19.7341C9.43754 18.6225 9.67741 18.017 11.0552 18.0901C13.726 18.2334 16.4115 18.1311 19.0881 18.1311C21.7209 18.1311 24.3537 18.1837 26.9865 18.1076C28.1039 18.0755 28.6363 18.2832 28.7007 19.5703C28.8222 21.2199 29.0578 22.859 29.4057 24.476C29.5724 25.3536 29.2975 25.6228 28.4579 25.5584C27.8745 25.4966 27.2861 25.4966 26.7027 25.5584C25.2927 25.7544 24.4649 25.3361 24.5965 23.7681C24.6667 22.949 24.225 22.832 23.5317 22.8408C20.5098 22.8671 17.4909 22.8759 14.4632 22.8408C13.6705 22.8408 13.3867 23.0368 13.3311 23.8764C13.0883 27.5857 13.0561 27.5827 16.8239 27.5827C20.5917 27.5827 24.3244 27.6237 28.0718 27.5564C29.198 27.5271 29.6134 27.7787 29.4818 28.9898H29.4905Z" fill="#F9F9F9"/>
</g>
<defs>
<clipPath id="clip0">
<rect width="37.3825" height="52.5854" fill="white"/>
</clipPath>
</defs>
</svg>
