<svg width="198" height="198" viewBox="0 0 198 198" fill="none" xmlns="http://www.w3.org/2000/svg">
<circle cx="99" cy="99" r="96" stroke="url(#paint0_linear)" stroke-opacity="0.3" stroke-width="6"/>
<circle cx="99" cy="99" r="81" fill="url(#paint1_linear)" fill-opacity="0.4"/>
<path d="M115.086 82.5902C115.849 81.8639 116.864 81.4624 117.918 81.4703C118.971 81.4783 119.98 81.8951 120.732 82.6329C121.484 83.3707 121.919 84.3717 121.947 85.4246C121.975 86.4776 121.593 87.5002 120.881 88.2767L99.2724 115.301C98.9009 115.701 98.4524 116.022 97.9539 116.245C97.4554 116.468 96.917 116.588 96.371 116.598C95.825 116.609 95.2825 116.508 94.7761 116.304C94.2697 116.1 93.8096 115.796 93.4235 115.409L79.0936 101.079C78.6945 100.708 78.3744 100.259 78.1524 99.7609C77.9304 99.2626 77.811 98.7248 77.8014 98.1794C77.7918 97.634 77.8921 97.0923 78.0964 96.5865C78.3007 96.0808 78.6047 95.6213 78.9904 95.2356C79.3761 94.8499 79.8356 94.5459 80.3413 94.3416C80.8471 94.1373 81.3888 94.037 81.9342 94.0466C82.4796 94.0562 83.0174 94.1756 83.5157 94.3976C84.0139 94.6196 84.4623 94.9397 84.8342 95.3387L96.1747 106.674L114.983 82.7093C115.017 82.6676 115.053 82.6279 115.092 82.5902H115.086Z" fill="#18A941"/>
<defs>
<linearGradient id="paint0_linear" x1="198" y1="0" x2="0" y2="198" gradientUnits="userSpaceOnUse">
<stop offset="0.144828" stop-color="#3BE36A"/>
<stop offset="0.833776" stop-color="#18A941"/>
</linearGradient>
<linearGradient id="paint1_linear" x1="190.36" y1="18" x2="18" y2="180" gradientUnits="userSpaceOnUse">
<stop stop-color="#3BE36A"/>
<stop offset="1" stop-color="#18A941"/>
</linearGradient>
</defs>
</svg>
